<svg width="32" height="32" viewBox="0 0 32 32" fill="none" xmlns="http://www.w3.org/2000/svg">
<circle cx="16" cy="16" r="14.5" stroke="black" stroke-width="3"/>
<ellipse cx="20.4978" cy="13.3716" rx="2.22217" ry="3.37157" fill="black"/>
<ellipse cx="12.2222" cy="13.3716" rx="2.22217" ry="3.37157" fill="black"/>
<path d="M22.7795 21.3939C21.5692 23.735 19.1268 25.2963 16.2963 25.2963C13.4658 25.2963 11.0234 23.735 9.81306 21.3939C9.5095 20.8068 9.64392 20.31 9.97313 19.9663C10.3264 19.5974 10.9553 19.3662 11.6829 19.5594C12.7598 19.8452 13.9967 20.1179 16.2963 20.1179C18.6984 20.1179 19.857 19.8198 20.9185 19.5223C21.6261 19.3241 22.2498 19.5524 22.609 19.9331C22.9493 20.2938 23.0813 20.8103 22.7795 21.3939Z" stroke="black" stroke-width="2"/>
</svg>
