<svg width="118" height="130" viewBox="0 0 118 130" fill="none" xmlns="http://www.w3.org/2000/svg">
<path d="M109 87.1205V42.4737C108.998 40.5163 108.484 38.5939 107.509 36.8993C106.533 35.2047 105.132 33.7975 103.444 32.8188L64.5556 10.4954C62.8665 9.51574 60.9504 9 59 9C57.0496 9 55.1335 9.51574 53.4444 10.4954L14.5556 32.8188C12.8681 33.7975 11.4666 35.2047 10.4915 36.8993C9.51635 38.5939 9.002 40.5163 9 42.4737V87.1205C9.002 89.0779 9.51635 91.0003 10.4915 92.6949C11.4666 94.3895 12.8681 95.7967 14.5556 96.7754L53.4444 119.099C55.1335 120.078 57.0496 120.594 59 120.594C60.9504 120.594 62.8665 120.078 64.5556 119.099L103.444 96.7754C105.132 95.7967 106.533 94.3895 107.509 92.6949C108.484 91.0003 108.998 89.0779 109 87.1205Z" stroke="black" stroke-width="17" stroke-linecap="round" stroke-linejoin="round"/>
</svg>
