<svg width="112" height="124" viewBox="0 0 112 124" fill="none" xmlns="http://www.w3.org/2000/svg">
<path d="M106 84.1205V39.4737C105.998 37.5163 105.484 35.5939 104.509 33.8993C103.533 32.2047 102.132 30.7975 100.444 29.8188L61.5556 7.49538C59.8665 6.51574 57.9504 6 56 6C54.0496 6 52.1335 6.51574 50.4444 7.49538L11.5556 29.8188C9.86812 30.7975 8.46656 32.2047 7.49145 33.8993C6.51635 35.5939 6.002 37.5163 6 39.4737V84.1205C6.002 86.0779 6.51635 88.0003 7.49145 89.6949C8.46656 91.3895 9.86812 92.7967 11.5556 93.7754L50.4444 116.099C52.1335 117.078 54.0496 117.594 56 117.594C57.9504 117.594 59.8665 117.078 61.5556 116.099L100.444 93.7754C102.132 92.7967 103.533 91.3895 104.509 89.6949C105.484 88.0003 105.998 86.0779 106 84.1205Z" stroke="black" stroke-width="12" stroke-linecap="round" stroke-linejoin="round"/>
</svg>
